<svg width="54" height="51" viewBox="0 0 54 51" fill="none" xmlns="http://www.w3.org/2000/svg">
<rect width="54" height="51" rx="10" fill="#57844A"/>
<path d="M30.5953 34.532C29.1553 34.532 28.3033 34.4 28.0393 34.136C27.9193 34.016 27.5713 33.788 26.9953 33.452C26.4433 33.116 25.6393 32.684 24.5833 32.156C24.3433 32.036 23.9113 31.808 23.2873 31.472C22.6633 31.112 21.9313 30.728 21.0913 30.32C20.9713 30.248 20.7673 30.14 20.4793 29.996C20.2153 29.852 19.9393 29.708 19.6513 29.564C19.3633 29.396 19.1473 29.276 19.0033 29.204L18.3553 28.88C18.3073 28.856 18.2353 28.82 18.1393 28.772C18.0433 28.724 17.9353 28.664 17.8153 28.592L16.8073 28.088C16.6393 27.992 16.4473 27.884 16.2313 27.764C16.0393 27.644 15.8353 27.536 15.6193 27.44L10.8673 24.92C10.6753 24.368 10.5073 23.864 10.3633 23.408C10.2193 22.952 10.1233 22.544 10.0753 22.184C10.0273 21.824 9.93127 21.38 9.78727 20.852C9.64327 20.324 9.47527 19.712 9.28327 19.016C9.57127 18.392 9.83527 17.852 10.0753 17.396C10.3153 16.916 10.5313 16.544 10.7233 16.28C10.8673 16.088 11.0233 15.872 11.1913 15.632C11.3593 15.368 11.5873 15.008 11.8753 14.552C11.9953 14.384 12.1033 14.204 12.1993 14.012C12.3193 13.796 12.4273 13.592 12.5233 13.4C12.7153 13.352 12.9673 13.28 13.2793 13.184C13.5913 13.088 13.8313 13.028 13.9993 13.004C14.4073 12.932 14.8753 12.812 15.4033 12.644C15.9313 12.476 16.3513 12.344 16.6633 12.248C16.9993 12.128 17.4193 12.008 17.9233 11.888L20.5513 13.508C21.1273 13.868 21.6793 14.18 22.2073 14.444C22.7353 14.708 23.2393 14.996 23.7193 15.308L24.7273 15.956C25.4473 16.412 25.9993 16.772 26.3833 17.036C26.7913 17.3 27.0433 17.48 27.1393 17.576C27.2353 17.672 27.4273 17.804 27.7153 17.972C28.0033 18.14 28.3873 18.368 28.8673 18.656C29.5873 19.088 30.3073 19.52 31.0273 19.952C31.7713 20.36 32.5033 20.78 33.2233 21.212C33.6793 21.5 34.0513 21.752 34.3393 21.968C34.6273 22.208 34.9753 22.556 35.3833 23.012C35.7913 23.444 36.1393 23.9 36.4273 24.38L38.4073 27.692C39.4393 29.42 40.2193 30.74 40.7473 31.652C41.2993 32.564 41.5873 33.08 41.6113 33.2C41.6833 33.416 41.7193 33.584 41.7193 33.704C41.7193 33.968 41.5993 34.148 41.3593 34.244C41.1433 34.34 40.8673 34.388 40.5313 34.388C40.1233 34.388 39.7033 34.4 39.2713 34.424C38.8393 34.424 38.4193 34.424 38.0113 34.424L31.6033 34.496C31.4353 34.496 31.2673 34.508 31.0993 34.532C30.9313 34.532 30.7633 34.532 30.5953 34.532ZM11.9473 23.624C11.9953 23.624 12.0433 23.624 12.0913 23.624C12.1393 23.6 12.1873 23.588 12.2353 23.588L12.9553 23.48C13.2433 23.48 13.6993 23.324 14.3233 23.012C14.6113 22.868 14.9833 22.712 15.4393 22.544C15.8953 22.352 16.1953 22.256 16.3393 22.256C16.3873 22.208 16.5073 22.016 16.6993 21.68C16.9153 21.32 17.0353 21.092 17.0593 20.996L17.2393 20.528C17.3353 20.264 17.4433 20.048 17.5633 19.88C17.7073 19.688 17.8273 19.532 17.9233 19.412C18.1393 19.148 18.3193 18.896 18.4633 18.656C18.5353 18.536 18.6193 18.404 18.7153 18.26C18.8353 18.092 18.9793 17.912 19.1473 17.72C19.1233 17.624 19.0633 17.444 18.9673 17.18C18.8713 16.916 18.7273 16.568 18.5353 16.136C18.1753 15.272 17.9473 14.696 17.8513 14.408L17.4913 13.256L16.5193 13.616C16.2793 13.712 16.0393 13.808 15.7993 13.904C15.5593 13.976 15.3793 14.024 15.2593 14.048L13.4593 14.552C13.4113 14.624 13.2913 14.804 13.0993 15.092C12.9313 15.356 12.8233 15.524 12.7753 15.596L11.7313 17.252C11.5633 17.54 11.3713 17.864 11.1553 18.224C10.9393 18.56 10.7233 18.896 10.5073 19.232L11.0113 20.924C11.1073 21.236 11.1913 21.476 11.2633 21.644C11.3353 21.788 11.3953 21.944 11.4433 22.112L11.9473 23.624ZM33.6913 25.28V22.832L31.2433 21.248C31.0753 21.128 30.8713 21.008 30.6313 20.888C30.3913 20.744 30.1393 20.612 29.8753 20.492L29.1553 20.132C29.0593 20.084 28.9633 20.036 28.8673 19.988C28.7713 19.94 28.6993 19.904 28.6513 19.88L25.8793 18.116C25.7113 17.996 25.5553 17.9 25.4113 17.828C25.2913 17.756 25.1953 17.696 25.1233 17.648L18.9313 13.76L19.2553 14.588C19.3273 14.78 19.3993 14.984 19.4713 15.2C19.5433 15.392 19.5793 15.536 19.5793 15.632C19.5793 15.728 19.6153 15.92 19.6873 16.208C19.7833 16.496 19.8913 16.784 20.0113 17.072C20.1313 17.336 20.2153 17.54 20.2633 17.684C20.3833 17.852 20.6713 18.068 21.1273 18.332C21.3913 18.452 21.6073 18.572 21.7753 18.692C21.9433 18.812 22.0753 18.932 22.1713 19.052C22.3873 19.268 22.6393 19.472 22.9273 19.664L23.3593 19.952C23.5033 20.048 23.6473 20.132 23.7913 20.204C23.9593 20.276 24.0913 20.336 24.1873 20.384C24.6193 20.528 24.8953 20.636 25.0153 20.708C25.1593 20.78 25.4113 20.924 25.7713 21.14C25.9153 21.236 26.0713 21.332 26.2393 21.428C26.4073 21.5 26.5873 21.572 26.7793 21.644C27.0913 21.74 27.3793 21.872 27.6433 22.04C27.9313 22.208 28.3873 22.496 29.0113 22.904L31.3153 23.984C31.5553 24.08 31.7713 24.188 31.9633 24.308C32.1553 24.404 32.3113 24.488 32.4313 24.56L33.6913 25.28ZM14.1073 20.744C13.7473 20.744 13.4473 20.576 13.2073 20.24C12.9913 19.88 12.8833 19.472 12.8833 19.016C12.8833 18.488 13.0273 17.984 13.3153 17.504C13.6033 17 13.9393 16.592 14.3233 16.28C14.7313 15.944 15.1153 15.776 15.4753 15.776C15.9073 15.776 16.2313 15.92 16.4473 16.208C16.6633 16.496 16.7713 16.88 16.7713 17.36C16.7713 17.576 16.6873 17.876 16.5193 18.26C16.3513 18.62 16.1353 18.992 15.8713 19.376C15.6073 19.76 15.3193 20.084 15.0073 20.348C14.6953 20.612 14.3953 20.744 14.1073 20.744ZM31.1713 30.392C31.6513 30.008 32.0113 29.66 32.2513 29.348C32.5153 29.036 32.6833 28.76 32.7553 28.52C32.8273 28.28 32.8873 28.052 32.9353 27.836C33.0073 27.62 33.0913 27.428 33.1873 27.26L33.4033 26.792C33.0193 26.552 32.6473 26.324 32.2873 26.108C31.9513 25.868 31.6153 25.628 31.2793 25.388C31.0153 25.292 30.7993 25.208 30.6313 25.136C30.4873 25.064 30.2833 24.944 30.0193 24.776L29.2993 24.272C28.4593 23.672 27.8953 23.372 27.6073 23.372C27.3193 23.372 26.9233 23.192 26.4193 22.832L24.7633 21.608C24.6193 21.488 24.4153 21.38 24.1513 21.284C23.8873 21.164 23.4433 20.996 22.8193 20.78C22.3873 20.612 22.0513 20.432 21.8113 20.24C21.6673 20.12 21.5233 20.024 21.3793 19.952C21.2593 19.88 21.1393 19.808 21.0193 19.736L20.5153 19.448C20.4193 19.376 20.3113 19.316 20.1913 19.268C20.0953 19.22 19.9873 19.16 19.8673 19.088C19.4113 19.616 19.1833 19.964 19.1833 20.132C19.1833 20.324 19.0513 20.624 18.7873 21.032L17.7793 22.544L18.2473 22.868C18.5113 23.06 18.7873 23.216 19.0753 23.336L19.5433 23.552C20.0713 23.816 20.5153 24.08 20.8753 24.344C21.0673 24.464 21.2233 24.572 21.3433 24.668C21.4633 24.764 21.5713 24.836 21.6673 24.884L26.2753 27.44C26.4433 27.536 26.6593 27.668 26.9233 27.836C27.1873 28.004 27.4633 28.184 27.7513 28.376L29.9113 29.744C30.0073 29.792 30.1033 29.852 30.1993 29.924C30.3193 29.972 30.4273 30.02 30.5233 30.068L31.1713 30.392ZM28.5073 32.768L30.2353 31.328C30.1633 31.28 30.0913 31.244 30.0193 31.22C29.9473 31.172 29.8873 31.124 29.8393 31.076C29.7673 31.028 29.6953 30.98 29.6233 30.932C29.5513 30.884 29.4673 30.836 29.3713 30.788L29.0113 30.536C28.9633 30.488 28.7953 30.38 28.5073 30.212L26.3473 28.916C26.2753 28.868 26.1433 28.796 25.9513 28.7C25.7833 28.58 25.5553 28.472 25.2673 28.376C24.8833 28.232 24.5473 28.076 24.2593 27.908C23.9953 27.74 23.7313 27.596 23.4673 27.476C23.3233 27.308 23.1913 27.176 23.0713 27.08C22.9753 26.984 22.8913 26.888 22.8193 26.792C22.6993 26.672 22.4353 26.528 22.0273 26.36L21.5593 26.18C21.0313 25.988 20.6113 25.736 20.2993 25.424C19.9393 25.064 19.6513 24.872 19.4353 24.848C19.1473 24.824 18.8353 24.692 18.4993 24.452C18.1153 24.188 17.7793 23.984 17.4913 23.84C17.2033 23.672 16.9153 23.528 16.6273 23.408C16.5313 23.456 16.3033 23.528 15.9433 23.624C15.6073 23.72 15.3793 23.78 15.2593 23.804C15.0193 23.828 14.7913 23.888 14.5753 23.984C14.3833 24.08 14.1553 24.188 13.8913 24.308L13.2433 24.632C13.8673 25.016 14.4553 25.388 15.0073 25.748C15.5833 26.108 16.1833 26.432 16.8073 26.72L17.9233 27.224C18.0433 27.272 18.1753 27.332 18.3193 27.404C18.4633 27.476 18.6073 27.536 18.7513 27.584C18.8713 27.632 19.0513 27.716 19.2913 27.836C19.5553 27.956 19.8673 28.112 20.2273 28.304L22.3873 29.456C22.7473 29.648 23.1073 29.852 23.4673 30.068C23.8273 30.284 24.1873 30.488 24.5473 30.68C24.7873 30.8 25.0153 30.932 25.2313 31.076C25.4473 31.22 25.6753 31.352 25.9153 31.472C26.1793 31.616 26.5513 31.82 27.0313 32.084C27.5353 32.324 28.0273 32.552 28.5073 32.768ZM30.0193 33.236C30.1153 33.236 30.3073 33.236 30.5953 33.236C30.9073 33.212 31.2553 33.2 31.6393 33.2C32.0713 33.2 32.5153 33.2 32.9713 33.2C33.4513 33.176 33.9673 33.164 34.5193 33.164C35.1433 33.164 35.7553 33.176 36.3553 33.2C36.9553 33.2 37.5553 33.2 38.1553 33.2C38.4433 33.2 38.7193 32.996 38.9833 32.588C39.2473 32.156 39.3793 31.808 39.3793 31.544C39.3793 31.424 39.2713 31.184 39.0553 30.824C38.8633 30.464 38.6353 30.104 38.3713 29.744L37.8673 29.024C37.6753 28.736 37.4353 28.376 37.1473 27.944C36.8593 27.512 36.6193 27.104 36.4273 26.72L36.1393 26.144C36.0673 26 35.9593 25.82 35.8153 25.604C35.6713 25.364 35.5273 25.148 35.3833 24.956L34.8433 24.2L34.7713 24.632C34.7473 24.776 34.7353 24.92 34.7353 25.064C34.7353 25.208 34.7353 25.364 34.7353 25.532V25.748C34.7593 25.796 34.7713 25.856 34.7713 25.928C34.7713 26.048 34.8913 26.312 35.1313 26.72C35.2513 26.912 35.3713 27.116 35.4913 27.332C35.6113 27.548 35.7553 27.776 35.9233 28.016C35.6833 27.824 35.4313 27.656 35.1673 27.512C34.9273 27.368 34.7353 27.296 34.5913 27.296C34.3753 27.296 34.2673 27.44 34.2673 27.728C34.2673 27.968 34.4833 28.34 34.9153 28.844C35.3473 29.324 35.8033 29.792 36.2833 30.248C36.1633 30.2 36.0313 30.164 35.8873 30.14C35.7673 30.116 35.6473 30.092 35.5273 30.068L34.7353 29.744C34.6393 29.696 34.4833 29.66 34.2673 29.636C34.0513 29.612 33.8713 29.6 33.7273 29.6C33.3673 29.6 33.0673 29.732 32.8273 29.996C32.5873 30.26 32.4673 30.488 32.4673 30.68C32.4673 30.896 32.5513 31.1 32.7193 31.292C32.9113 31.46 33.1633 31.664 33.4753 31.904C33.2113 31.904 32.9953 31.916 32.8273 31.94C32.6833 31.94 32.5633 31.94 32.4673 31.94C32.3473 31.94 32.2153 31.952 32.0713 31.976C31.9513 31.976 31.8193 31.976 31.6753 31.976C31.2193 31.976 30.8233 32.108 30.4873 32.372C30.1513 32.636 29.8753 32.912 29.6593 33.2L30.0193 33.236Z" fill="white"/>
</svg>
